<svg width="130" height="96" viewBox="0 0 130 96" fill="none" xmlns="http://www.w3.org/2000/svg">
<g clip-path="url(#clip0_1579_37216)">
<path d="M106.087 0H7.69237C3.44446 0 0 3.44762 0 7.69943V69.2232C0 73.4758 3.44446 76.9227 7.69237 76.9227H106.087C110.336 76.9227 113.779 73.4751 113.779 69.2232V7.69943C113.779 3.44687 110.335 0 106.087 0ZM5.85181 11.6555C5.85181 7.40295 9.29627 3.95609 13.5442 3.95609H100.235C104.484 3.95609 107.928 7.40371 107.928 11.6555V16.3064H5.85181V11.6555ZM107.928 65.2672C107.928 69.5197 104.483 72.9666 100.235 72.9666H13.5442C9.29551 72.9666 5.85181 69.519 5.85181 65.2672V34.6912H107.928V65.2672Z" fill="white"/>
<path d="M107.928 11.6555V16.3064H5.85205V11.6555C5.85205 7.40292 9.29651 3.95605 13.5444 3.95605H100.235C104.484 3.95605 107.928 7.40368 107.928 11.6555Z" fill="white"/>
<path d="M107.928 34.6914V65.2674C107.928 69.5199 104.483 72.9668 100.235 72.9668H13.5444C9.29575 72.9668 5.85205 69.5192 5.85205 65.2674V34.6914H107.928Z" fill="white"/>
<path d="M107.928 11.6555V16.3064H5.85205V11.6555C5.85205 7.40292 9.29651 3.95605 13.5444 3.95605H100.235C104.484 3.95605 107.928 7.40368 107.928 11.6555Z" fill="#91241E"/>
<path d="M107.928 34.6914V65.2674C107.928 69.5199 104.483 72.9668 100.235 72.9668H13.5444C9.29575 72.9668 5.85205 69.5192 5.85205 65.2674V34.6914H107.928Z" fill="#91241E"/>
<path d="M103.929 96.0002C118.328 96.0002 130.001 84.3168 130.001 69.9046C130.001 55.4925 118.328 43.8091 103.929 43.8091C89.5301 43.8091 77.8574 55.4925 77.8574 69.9046C77.8574 84.3168 89.5301 96.0002 103.929 96.0002Z" fill="white"/>
<path d="M103.929 91.664C115.935 91.664 125.668 81.922 125.668 69.9047C125.668 57.8875 115.935 48.1455 103.929 48.1455C91.9229 48.1455 82.1899 57.8875 82.1899 69.9047C82.1899 81.922 91.9229 91.664 103.929 91.664Z" fill="white"/>
<path d="M91.7709 65.5249L86.521 69.6362L97.6352 83.8543L102.885 79.743L91.7709 65.5249Z" fill="#972F1D"/>
<path d="M93.535 78.5925L97.6426 83.8472L121.344 65.2862L117.236 60.0316L93.535 78.5925Z" fill="#972F1D"/>
</g>
<defs>
<clipPath id="clip0_1579_37216">
<rect width="130" height="96" fill="white"/>
</clipPath>
</defs>
</svg>
