<svg width="26" height="23" viewBox="0 0 26 23" fill="none" xmlns="http://www.w3.org/2000/svg">
<path fill-rule="evenodd" clip-rule="evenodd" d="M12.2514 16.0164C12.177 15.9509 12.1179 15.8731 12.0776 15.7874C12.0373 15.7017 12.0166 15.6098 12.0166 15.517C12.0166 15.4243 12.0373 15.3324 12.0776 15.2467C12.1179 15.161 12.177 15.0832 12.2514 15.0177L16.4821 11.2851L12.2514 7.55249C12.1013 7.42005 12.017 7.24042 12.017 7.05312C12.017 6.86582 12.1013 6.68619 12.2514 6.55375C12.4014 6.4213 12.605 6.3469 12.8172 6.3469C13.0294 6.3469 13.2329 6.4213 13.383 6.55375L18.178 10.7857C18.2524 10.8512 18.3114 10.9291 18.3517 11.0148C18.392 11.1004 18.4127 11.1923 18.4127 11.2851C18.4127 11.3779 18.392 11.4697 18.3517 11.5554C18.3114 11.6411 18.2524 11.7189 18.178 11.7845L13.383 16.0164C13.3088 16.0821 13.2206 16.1342 13.1235 16.1698C13.0264 16.2053 12.9223 16.2236 12.8172 16.2236C12.7121 16.2236 12.608 16.2053 12.5109 16.1698C12.4138 16.1342 12.3256 16.0821 12.2514 16.0164Z" fill="#479FC8"/>
<path fill-rule="evenodd" clip-rule="evenodd" d="M7.22314 11.2849C7.22314 11.0978 7.30734 10.9184 7.45721 10.7862C7.60709 10.6539 7.81036 10.5796 8.02231 10.5796L16.0139 10.5796C16.2259 10.5796 16.4291 10.6539 16.579 10.7862C16.7289 10.9184 16.8131 11.0978 16.8131 11.2849C16.8131 11.472 16.7289 11.6514 16.579 11.7836C16.4291 11.9159 16.2259 11.9902 16.0139 11.9902L8.02231 11.9902C7.81036 11.9902 7.60709 11.9159 7.45721 11.7836C7.30734 11.6514 7.22314 11.472 7.22314 11.2849Z" fill="#479FC8"/>
</svg>
