<svg width="70" height="70" viewBox="0 0 70 70" fill="none" xmlns="http://www.w3.org/2000/svg">
<circle cx="35" cy="35" r="35" fill="#EE312A"/>
<path fill-rule="evenodd" clip-rule="evenodd" d="M25.8002 16.6001C23.2597 16.6001 21.2002 18.6596 21.2002 21.2001V48.8001C21.2002 51.3406 23.2597 53.4001 25.8002 53.4001H44.2002C46.7407 53.4001 48.8002 51.3406 48.8002 48.8001V21.2001C48.8002 18.6596 46.7407 16.6001 44.2002 16.6001H25.8002ZM28.1002 21.2001C26.8299 21.2001 25.8002 22.2298 25.8002 23.5001C25.8002 24.7704 26.8299 25.8001 28.1002 25.8001H41.9002C43.1704 25.8001 44.2002 24.7704 44.2002 23.5001C44.2002 22.2298 43.1704 21.2001 41.9002 21.2001H28.1002ZM41.9002 37.3001C43.1704 37.3001 44.2002 38.3298 44.2002 39.6001V46.5001C44.2002 47.7704 43.1704 48.8001 41.9002 48.8001C40.6299 48.8001 39.6002 47.7704 39.6002 46.5001V39.6001C39.6002 38.3298 40.6299 37.3001 41.9002 37.3001ZM35.0002 44.2001C33.7299 44.2001 32.7002 45.2298 32.7002 46.5001C32.7002 47.7704 33.7299 48.8001 35.0002 48.8001H35.0232C36.2934 48.8001 37.3232 47.7704 37.3232 46.5001C37.3232 45.2298 36.2934 44.2001 35.0232 44.2001H35.0002ZM25.8002 46.5001C25.8002 45.2298 26.8299 44.2001 28.1002 44.2001H28.1232C29.3934 44.2001 30.4232 45.2298 30.4232 46.5001C30.4232 47.7704 29.3934 48.8001 28.1232 48.8001H28.1002C26.8299 48.8001 25.8002 47.7704 25.8002 46.5001ZM28.1002 37.3001C26.8299 37.3001 25.8002 38.3298 25.8002 39.6001C25.8002 40.8704 26.8299 41.9001 28.1002 41.9001H28.1232C29.3934 41.9001 30.4232 40.8704 30.4232 39.6001C30.4232 38.3298 29.3934 37.3001 28.1232 37.3001H28.1002ZM32.7002 39.6001C32.7002 38.3298 33.7299 37.3001 35.0002 37.3001H35.0232C36.2934 37.3001 37.3232 38.3298 37.3232 39.6001C37.3232 40.8704 36.2934 41.9001 35.0232 41.9001H35.0002C33.7299 41.9001 32.7002 40.8704 32.7002 39.6001ZM41.9002 30.4001C40.6299 30.4001 39.6002 31.4298 39.6002 32.7001C39.6002 33.9704 40.6299 35.0001 41.9002 35.0001H41.9232C43.1934 35.0001 44.2232 33.9704 44.2232 32.7001C44.2232 31.4298 43.1934 30.4001 41.9232 30.4001H41.9002ZM32.7002 32.7001C32.7002 31.4298 33.7299 30.4001 35.0002 30.4001H35.0232C36.2934 30.4001 37.3232 31.4298 37.3232 32.7001C37.3232 33.9704 36.2934 35.0001 35.0232 35.0001H35.0002C33.7299 35.0001 32.7002 33.9704 32.7002 32.7001ZM28.1002 30.4001C26.8299 30.4001 25.8002 31.4298 25.8002 32.7001C25.8002 33.9704 26.8299 35.0001 28.1002 35.0001H28.1232C29.3934 35.0001 30.4232 33.9704 30.4232 32.7001C30.4232 31.4298 29.3934 30.4001 28.1232 30.4001H28.1002Z" fill="white"/>
</svg>
