<svg width="70" height="70" viewBox="0 0 70 70" fill="none" xmlns="http://www.w3.org/2000/svg">
<circle cx="35" cy="35" r="35" fill="#00425F"/>
<path d="M45.9719 39.2529C45.0819 38.4874 44.1011 37.8527 43.1565 37.2366C43.1202 37.1992 43.0657 37.1805 43.0294 37.1619C45.8811 34.8281 47.643 31.6169 48.0244 27.9949C48.4421 23.9621 47.098 19.8734 44.4098 17.0728C41.8306 14.3657 38.3977 12.9281 34.7468 13.0028C31.0959 13.0774 27.7175 14.6644 25.2291 17.4836C22.7407 20.3028 21.5419 24.2982 22.0142 28.1629C22.4501 31.6915 24.2119 34.8281 26.991 37.1432C21.0333 40.6345 18.0182 45.9368 18 52.8821C18 53.965 18.109 54.7491 18.6539 55.3092C19.2715 55.944 20.1796 56 21.1241 56C30.3876 56 39.651 56 48.9144 56C48.9689 56 49.0415 56 49.096 56C49.1687 56 49.2232 56 49.2958 56C49.5501 56 49.8044 55.9813 50.095 55.9253C51.2393 55.6826 51.9477 54.8424 51.984 53.7036C52.202 47.7478 50.1859 42.8936 45.9719 39.2529ZM34.0566 39.9064C38.1434 39.7197 41.1222 40.6532 43.4472 42.8189C45.8811 45.078 47.1344 47.8038 47.2615 51.1271H22.7407C22.7044 49.6522 23.0313 48.2146 23.7397 46.7583C25.8285 42.3522 29.2069 40.1117 34.0566 39.9064ZM34.9466 17.801C39.6147 17.801 43.3382 21.5723 43.4108 26.4266C43.4472 28.6296 42.5935 30.758 41.0133 32.4383C39.433 34.1 37.3079 35.0708 35.1464 35.1082C32.8941 35.1455 30.769 34.268 29.1706 32.6437C27.5359 31.0007 26.6277 28.7977 26.6095 26.4452C26.5914 24.2608 27.4814 22.0578 29.0435 20.4148C30.6237 18.7718 32.7488 17.8197 34.9103 17.8197C34.9103 17.801 34.9285 17.801 34.9466 17.801Z" fill="#F9FAFB"/>
</svg>
