<svg width="24" height="24" viewBox="0 0 24 24" fill="none" xmlns="http://www.w3.org/2000/svg">
<path d="M6.99983 10.4999C6.99907 10.3683 7.02429 10.2379 7.07405 10.116C7.12382 9.99419 7.19715 9.88338 7.28983 9.78994C7.38279 9.69621 7.49339 9.62182 7.61525 9.57105C7.73711 9.52028 7.86781 9.49414 7.99983 9.49414C8.13184 9.49414 8.26254 9.52028 8.3844 9.57105C8.50626 9.62182 8.61686 9.69621 8.70983 9.78994L11.9998 13.0999L15.3098 9.91994C15.4972 9.73369 15.7506 9.62915 16.0148 9.62915C16.279 9.62915 16.5325 9.73369 16.7198 9.91994C16.8136 10.0129 16.8879 10.1235 16.9387 10.2454C16.9895 10.3672 17.0156 10.4979 17.0156 10.6299C17.0156 10.762 16.9895 10.8927 16.9387 11.0145C16.8879 11.1364 16.8136 11.247 16.7198 11.3399L12.7198 15.1999C12.5329 15.3832 12.2816 15.4858 12.0198 15.4858C11.7581 15.4858 11.5068 15.3832 11.3198 15.1999L7.31983 11.1999C7.22289 11.1102 7.14471 11.0021 7.08978 10.882C7.03486 10.7618 7.00428 10.632 6.99983 10.4999Z" fill="white"/>
</svg>
