<svg width="70" height="70" viewBox="0 0 70 70" fill="none" xmlns="http://www.w3.org/2000/svg">
<circle cx="35" cy="35" r="35" fill="#00B8DE"/>
<path d="M58.8798 38.1603C57.5843 33.5505 56.3169 28.9692 54.9086 23.8726C54.7396 23.2427 54.458 22.8275 54.0637 22.5984C53.6694 22.3837 53.1906 22.3694 52.585 22.5412C51.4444 22.8991 50.2755 23.2283 49.1349 23.5433C48.1773 23.8153 47.1915 24.0873 46.2198 24.388C45.6566 24.5598 45.2059 24.9606 44.9947 25.1754C44.4877 25.6908 44.0934 25.791 43.502 25.5333L43.3893 25.476C42.0656 24.889 40.6855 24.2734 39.2773 23.801C37.2213 23.1138 35.0244 22.6127 32.8557 23.5576C31.532 24.1303 30.1942 24.2305 28.7719 24.3307C28.5888 24.345 28.3916 24.3593 28.2086 24.3737C26.4905 24.5025 24.8147 24.5598 23.0967 23.801C21.956 23.2999 20.745 22.9993 19.562 22.6986C18.8861 22.5268 18.182 22.355 17.506 22.1403C16.8864 21.9399 16.3935 21.9542 15.9992 22.1832C15.6049 22.398 15.3373 22.8132 15.1684 23.4288C14.6332 25.4331 14.0699 27.4231 13.5348 29.2699C12.9574 31.3028 12.3519 33.3644 11.7745 35.3543C11.521 36.2133 11.2676 37.0866 11.0141 37.9456L11 38.0172V39.2054L11.2112 39.3486C11.2816 39.4059 11.3661 39.4631 11.4506 39.5347C11.6619 39.7065 11.9013 39.9069 12.2111 39.9928C14.4361 40.6657 16.7456 41.3243 19.0973 41.9685C19.5902 42.1117 20.0268 42.0687 20.3929 41.854C20.759 41.6392 20.9984 41.267 21.1252 40.7516C21.1815 40.5082 21.2519 40.2792 21.3364 40.0358C24.35 43.5433 27.8143 46.4352 31.1236 49.0981C31.87 49.6994 32.6304 50 33.3768 50C33.8133 50 34.2499 49.8998 34.6864 49.685C35.1934 49.4273 35.6159 49.0408 36.0102 48.6543C36.0806 48.5827 36.1651 48.5111 36.2355 48.4395C37.2776 49.1553 38.207 49.4273 39.0801 49.2699C40.0236 49.0981 40.8686 48.4252 41.6431 47.2083C41.6994 47.1654 41.8966 47.0795 42.1078 47.0651C43.8259 46.9363 44.9806 46.0057 45.5298 44.3021C45.5721 44.1732 45.7974 43.9871 45.9804 43.844C46.0649 43.7724 46.1494 43.7151 46.2198 43.6435C46.3888 43.5004 46.586 43.3572 46.7972 43.214C47.2619 42.8848 47.7548 42.5412 48.0224 42.0115C48.304 41.4674 48.5575 41.31 48.9377 41.2813C49.501 42.4839 49.9798 42.6414 51.4021 42.2405C52.064 42.0544 52.7259 41.8683 53.3877 41.6679C54.7537 41.2813 56.176 40.8661 57.5702 40.4796C58.1757 40.3078 58.5841 40.0358 58.8094 39.6349C59.0347 39.277 59.0629 38.7759 58.8798 38.1603ZM22.0546 26.5641L18.6608 38.7759L14.3234 37.5304L17.7173 25.3329L22.0546 26.5641ZM38.1366 37.4159C37.6015 38.1031 37.7001 38.8905 38.4323 39.5061C39.066 40.0501 39.7138 40.6084 40.3475 41.1382C40.8686 41.582 41.3896 42.0258 41.8966 42.4696C41.9529 42.5125 42.0092 42.5555 42.0515 42.6127C42.7556 43.214 42.8964 43.4001 42.5303 43.9012C42.4035 44.0873 42.305 44.1016 42.2627 44.1016C42.1219 44.116 41.7558 44.0444 41.0094 43.4001C40.2208 42.713 39.404 42.0115 38.6013 41.3529C38.1929 41.0093 37.7845 40.6514 37.3621 40.3078C36.2637 39.3629 35.5314 39.7638 35.1089 40.2649C34.8132 40.6084 34.6864 40.9807 34.7146 41.3672C34.7568 41.811 35.0103 42.2262 35.5032 42.6271C36.6016 43.529 37.5874 44.3593 38.5732 45.2183C39.2069 45.7623 39.0519 45.9628 38.883 46.1632C38.7562 46.3064 38.6576 46.3923 38.5591 46.3923C38.4042 46.4066 38.1788 46.2777 37.869 45.9914C37.2213 45.4188 36.5735 44.8318 35.9257 44.2734C35.3342 43.7581 34.7287 43.214 34.1372 42.6843C33.0388 41.6965 32.2502 42.2405 31.8841 42.6557C30.9969 43.6578 31.7714 44.5741 32.1516 44.932C32.2784 45.0465 32.4051 45.1611 32.5318 45.2756C32.8698 45.5762 33.1937 45.8626 33.419 46.1918C33.5035 46.3064 33.5176 46.5498 33.5317 46.7931C33.3909 46.8218 33.1515 46.8647 33.0529 46.8504C29.0958 43.7008 25.5893 40.7946 22.7869 37.1439C22.4207 36.6714 22.3503 36.2563 22.5334 35.6407C23.1671 33.5218 23.8008 31.2312 24.6176 28.2391C24.7443 27.7523 24.857 27.6807 25.209 27.6521C26.0117 27.6092 26.8285 27.5233 27.5467 27.4374C27.5608 27.4374 27.589 27.4374 27.603 27.4374C27.5185 27.6521 27.4481 27.8525 27.3636 28.0673C26.9693 29.0981 26.575 30.1575 26.3215 31.2598C25.9413 32.9062 26.5187 34.4094 27.8565 35.2684C29.1239 36.0845 30.4899 35.9413 31.9404 34.8533C32.391 34.5097 32.7853 34.1088 33.1655 33.7079C33.4049 33.4503 33.6303 33.2212 33.8837 32.9921C34.1654 32.7344 34.4752 32.534 34.7709 32.4052C35.5595 32.0472 36.1792 32.2047 37.0523 32.9778C38.7844 34.4953 40.5869 35.9843 42.3331 37.4159C43.0372 38.0029 43.7554 38.5755 44.4596 39.1625L44.6567 39.3343C44.8679 39.5061 45.0651 39.6636 45.2482 39.8354C45.741 40.2792 45.6002 40.5655 45.389 40.8089C45.1918 41.0236 44.9384 41.2097 44.4877 40.8232C43.5301 40.0072 42.5584 39.1911 41.6008 38.3608L40.77 37.6593C40.7137 37.6163 40.6573 37.5591 40.601 37.5161C40.5024 37.4302 40.3898 37.33 40.2771 37.2298C39.5167 36.5999 38.714 36.6858 38.1366 37.4159ZM35.5314 29.1124C33.5317 29.3701 32.0108 30.2577 30.8842 31.8325C30.0252 33.0208 29.5746 32.7344 29.4337 32.6485C28.9972 32.3622 29.0535 31.8611 29.3492 30.8447L29.3774 30.7445C30.3209 27.4803 33.7288 25.476 36.9537 26.2777C38.3901 26.6356 39.9251 27.1797 41.5164 27.8955L41.7558 27.9957C42.8119 28.4825 43.9948 29.0265 45.3749 28.4109L48.1491 38.3751C48.0505 38.3751 47.9661 38.3608 47.9238 38.3465C46.5719 37.2011 45.2059 36.0272 43.8822 34.8819C43.0372 34.1518 42.1501 33.3787 41.291 32.6485L41.0094 32.4052C39.8828 31.4316 38.714 30.4438 37.4888 29.5419C36.9114 29.1124 36.0806 29.0551 35.5314 29.1124ZM55.7677 37.9313L51.4303 39.1911L48.0365 26.9792L52.3738 25.7337L55.7677 37.9313Z" fill="#F9FAFB"/>
</svg>
