<svg width="70" height="70" viewBox="0 0 70 70" fill="none" xmlns="http://www.w3.org/2000/svg">
<circle cx="35" cy="35" r="35" fill="#F7CA5C"/>
<path d="M51.5053 49.4159C52.3598 49.4535 53.1401 49.4723 53.9017 49.5474C55.2578 49.6977 56.0381 50.6183 55.9452 51.9522C55.8709 53.1922 54.9792 54 53.6602 54C41.5295 54 29.3987 54 17.268 54C16.0605 54 15.113 53.1734 15.0387 52.0837C14.9273 50.7122 15.6332 49.7353 16.9336 49.5474C17.751 49.4347 18.5869 49.4347 19.4786 49.3971C19.4786 44.0616 19.4786 38.7636 19.4786 33.3154C18.8842 33.3154 18.2711 33.3154 17.6767 33.3154C16.1905 33.2966 15.4846 32.8457 15.1316 31.756C14.7972 30.6852 15.0759 29.9337 16.2462 29.0507C21.1691 25.312 26.0734 21.5734 30.9963 17.8348C32.0552 17.0269 33.1327 16.2378 34.2287 15.4676C35.0647 14.8664 35.975 14.8288 36.7923 15.4488C42.8856 20.0516 48.9788 24.6733 55.0535 29.3137C55.9266 29.9712 56.1867 30.873 55.8709 31.7936C55.5365 32.7893 54.7934 33.2966 53.6788 33.3341C53.0286 33.3529 52.3784 33.3529 51.7282 33.3717C51.6725 33.3717 51.6167 33.4093 51.5053 33.4657C51.5053 38.7261 51.5053 44.024 51.5053 49.4159ZM24.2343 28.6374C31.8137 28.6374 39.1702 28.6374 46.7496 28.6374C42.867 25.7066 39.1888 22.9261 35.492 20.1268C31.7394 22.9636 28.0797 25.7441 24.2343 28.6374ZM28.5999 49.4159C28.5999 44.024 28.5999 38.7261 28.5999 33.3905C27.058 33.3905 25.6276 33.3905 24.1972 33.3905C24.1972 38.7636 24.1972 44.0804 24.1972 49.4159C25.6833 49.4159 27.1323 49.4159 28.5999 49.4159ZM37.6469 49.4159C37.6469 44.0052 37.6469 38.6885 37.6469 33.3529C36.1607 33.3529 34.7489 33.3529 33.2999 33.3529C33.2999 38.7261 33.2999 44.0428 33.2999 49.4159C34.7675 49.4159 36.1793 49.4159 37.6469 49.4159ZM46.8239 49.4159C46.8239 44.024 46.8239 38.7073 46.8239 33.3905C45.3192 33.3905 43.8887 33.3905 42.384 33.3905C42.384 38.7636 42.384 44.0616 42.384 49.4159C43.8702 49.4159 45.3006 49.4159 46.8239 49.4159Z" fill="#F9FAFB"/>
</svg>
