<svg width="103" height="20" viewBox="0 0 103 20" fill="none" xmlns="http://www.w3.org/2000/svg">
<path d="M102.017 5.6087H99.7804C99.3862 5.6087 99.0227 5.97967 99.0181 5.98754L90.5216 17.1145C90.362 17.3217 90.1101 17.3168 89.9588 17.1043L82.1128 5.98906C82.1084 5.97967 81.817 5.59906 81.2679 5.59906H66.1972C65.934 5.59906 65.7215 5.38653 65.7233 5.12449L65.7334 1.45242C65.7334 0.925303 65.3064 0.5 64.7832 0.5H41.7004C38.1254 0.620861 36.5962 0.978622 34.9606 1.93358C33.4527 2.81771 32.7001 3.93923 32.7001 5.28751C32.7001 6.71703 33.8665 8.12649 36.2002 9.51717C36.7998 9.87798 38.9598 10.9188 42.6749 12.636C45.0091 13.7146 46.268 14.602 46.1771 15.4785C46.0354 16.8885 44.7542 17.3724 41.7004 17.3724H27.7438C27.4059 17.3724 27.1303 17.3138 27.1303 17.05C27.1303 16.9207 27.2074 16.8027 27.3531 16.71L27.3506 16.7079C30.4755 14.8295 31.5064 12.2917 31.5064 9.99147C31.5064 5.68742 27.887 0.5 13.477 0.5H0.948392C0.42444 0.5 0 0.925303 0 1.45242V18.5529C0 19.0752 0.424443 19.501 0.949918 19.501H13.477C13.9553 19.501 14.4193 19.4951 14.8694 19.4832H46.2043C49.0662 19.4832 51.3016 19.0099 52.9161 18.0674C54.4067 17.1901 55.1518 16.0805 55.1518 14.7241C55.1518 13.3007 53.9856 11.8938 51.6522 10.5044C51.0549 10.1446 48.8961 9.09669 45.1751 7.37161C42.8425 6.29376 41.676 5.42208 41.676 4.75607C41.676 3.32756 43.187 2.63514 46.2043 2.63514H56.797C57.0595 2.63514 57.272 2.8464 57.2735 3.10767L57.2667 15.5156C57.2667 17.3346 58.4702 19.4832 62.118 19.4832H91.2334C91.9234 19.4832 92.2719 19.0373 92.2719 19.0373L102.248 5.92432C102.248 5.92432 102.469 5.6087 102.017 5.6087ZM11.5952 17.4443H8.51093C8.24819 17.4443 8.0352 17.2318 8.0352 16.9702V3.02515C8.0352 2.76362 8.24819 2.55059 8.50838 2.55059H11.5952C19.2258 2.55059 23.2732 5.68742 23.2732 9.99147C23.2732 14.3143 19.1875 17.4443 11.5952 17.4443ZM81.4883 17.4953H68.0392C66.1675 17.4953 65.7215 16.9616 65.7215 15.5156V8.05514C65.7215 7.80453 65.9197 7.60318 66.1637 7.58591H73.9735C74.2197 7.60318 74.517 7.75121 74.6726 7.93936L81.6853 17.1381C81.8234 17.3346 81.7401 17.4953 81.4883 17.4953Z" fill="#0095DA"/>
</svg>
