<svg id="Layer_1" data-name="Layer 1" xmlns="http://www.w3.org/2000/svg" viewBox="0 0 69.73 18.73"><defs><style>.cls-1{fill:#e41e26;}</style></defs><g id="Netflix_Logo_RGB"><path class="cls-1" d="M53.85,17q1.47.11,2.94.24V0H53.85ZM6.61,10.6,2.79,0H0V18.73l2.94-.4V8.15l3.4,9.77q1.61-.2,3.21-.36V0H6.61Zm5.76,6.69q4.07-.37,8.16-.61V13.79q-2.61.15-5.22.36V9.77c1.14,0,2.64,0,4,0V6.85c-1.06,0-2.77,0-4,0v-4h5.22V0H12.37Zm10-14.37h3.08V16.45c1,0,2-.07,2.93-.09V2.92H31.5V0H22.41Zm11,13.36h2.93V9.6h4V6.7h-4V2.92h5.27V0h-8.2ZM69.73,0H66.5L64.38,4.93,62.47,0H59.29L62.7,8.81,59,17.45c1,.1,2.06.2,3.08.32l2.17-5,2.15,5.54c1.12.14,2.23.29,3.34.45h0L65.9,8.87ZM46.39,0H43.46V16.42c2.67.09,5.32.23,8,.4V13.93c-1.67-.11-3.35-.21-5-.28Z"/></g></svg>