<svg id="Layer_1" data-name="Layer 1" xmlns="http://www.w3.org/2000/svg" viewBox="0 0 105 18.73"><defs><style>.cls-1{fill:#010101;}.cls-2{fill:#e770a8;}.cls-3{fill:#86a8b2;}</style></defs><path class="cls-1" d="M11.93.49V18.36c-.18-.09-.08-.25-.08-.36,0-.91,0-1.81,0-2.73-.13,0-.09.12-.1.17a4.28,4.28,0,0,1-3.67,3.09A10.56,10.56,0,0,1,.21,16.86c-.24-.15-.27-.26-.11-.5.48-.75,1-1.5,1.41-2.27.16-.28.28-.27.53-.11a8.24,8.24,0,0,0,4.23,1.35,3.3,3.3,0,0,0,.7-.05.68.68,0,0,0,.63-.61.69.69,0,0,0-.47-.7A12.89,12.89,0,0,0,5,13.26a12.75,12.75,0,0,1-2.17-.78A3.59,3.59,0,0,1,.56,9.17a4.08,4.08,0,0,1,2-3.84A6.41,6.41,0,0,1,6,4.47a10.7,10.7,0,0,1,5.26,1.37c.27.15.36.26.18.57C11,7.18,10.58,8,10.17,8.76c-.13.26-.22.32-.51.16A8.28,8.28,0,0,0,6,7.81a1.67,1.67,0,0,0-.77.12A.59.59,0,0,0,5.16,9a4.52,4.52,0,0,0,1.28.54c.85.27,1.72.49,2.55.83a4.42,4.42,0,0,1,2.86,2.7v-.45c0-3.91,0-7.82,0-11.74C11.85.76,11.75.6,11.93.49Z"/><path class="cls-2" d="M59.18,4.83H55.25a.37.37,0,0,0-.43.31C54.43,6.43,54,7.71,53.63,9c-.29.9-.51,1.84-.89,2.72,0,.1,0,.21-.07.31-.23.79-.47,1.58-.7,2.37,0,.13-.11.27-.15.41-.39,1.16-.69,2.35-1.12,3.49,0,0,0,.07.08.07h4.37a.21.21,0,0,0,.23-.18c.36-1.2.73-2.4,1.09-3.6h0a.6.6,0,0,0,.06-.11Q58,9.81,59.43,5.15C59.52,4.87,59.43,4.83,59.18,4.83Z"/><path class="cls-3" d="M64.7,4.83H60.64c-.29,0-.4.1-.48.37-.27.93-.57,1.86-.86,2.79l-1.84,6-1,3.21c-.09.28-.16.55-.27.82s0,.35.25.35c1.19,0,2.37,0,3.55,0,.68,0,.68,0,.87-.68,0-.15.1-.31.15-.46h0c.38-1.06.71-2.13,1-3.21h0l.16-.42c.26-.74.41-1.52.74-2.24l1.92-6.3c0-.07.09,0,.14,0C65,4.8,64.85,4.83,64.7,4.83Z"/><path class="cls-1" d="M11.93.49l3-.33c.46,0,.91-.07,1.36-.15s.36,0,.36.33c0,2,0,3.93,0,5.89v.38a4.93,4.93,0,0,1,6-1.79c2.05.77,2.6,2.55,2.71,4.61a7.22,7.22,0,0,1,6.07-4.89,7.57,7.57,0,0,1,7.31,2.87.49.49,0,0,0,0-.38c-.19-.63-.37-1.26-.58-1.89-.08-.25,0-.33.24-.33,1.34,0,2.68,0,4,0,.31,0,.35.17.41.38q.78,3,1.58,6c0,.09,0,.2.14.26.64-2.07,1.3-4.13,1.92-6.19a.53.53,0,0,1,.63-.45c1,0,2.06,0,3.1,0a.4.4,0,0,1,.46.33c.7,2.19,1.42,4.38,2.13,6.57.14.23,0,.45-.06.66-.21.68-.43,1.36-.62,2-.35,1.05-.66,2.12-1,3.18-.08.25-.07.56-.36.7C50,16,49.27,13.73,48.55,11.46h-.08c-.23.73-.47,1.45-.7,2.17-.47,1.47-1,3-1.41,4.42a.4.4,0,0,1-.45.34q-1.69,0-3.39,0c-.31,0-.39-.11-.47-.37-.62-2.05-1.25-4.11-1.89-6.16,0,0,0-.1-.06-.25a7.3,7.3,0,0,1-6.7,7.09,7.55,7.55,0,0,1-8.07-4.83v.53c0,1.23,0,2.45,0,3.67,0,.26-.06.32-.32.32-1.36,0-2.73,0-4.09,0-.3,0-.35-.09-.35-.37,0-2.25,0-4.51,0-6.76a3.84,3.84,0,0,0-.18-1.34A1.73,1.73,0,0,0,18.75,8.7a1.82,1.82,0,0,0-1.85,1A2.54,2.54,0,0,0,16.64,11c0,2.32,0,4.64,0,7,0,.33-.05.45-.41.44-1.43,0-2.87,0-4.3,0a18.51,18.51,0,0,1,0-2.47c0-.57-.14-1.13-.11-1.71.21-4.47.05-8.94.1-13.41A.46.46,0,0,1,11.93.49ZM31.49,8.68a2.76,2.76,0,0,0-1.78,2.38A3.05,3.05,0,0,0,31,14.16a2.67,2.67,0,0,0,2.93.17,2.8,2.8,0,0,0,1.53-2.49C35.43,9.41,33.43,7.92,31.49,8.68Z"/><path class="cls-1" d="M65,5l2.1,6.75c.18-.1.17-.29.21-.43.67-2.05,1.33-4.09,2-6.15.09-.28.2-.39.5-.38,1.11,0,2.21,0,3.31,0a.44.44,0,0,1,.52.37C74.26,7.46,75,9.74,75.67,12c.12.08.11.2.1.31a.6.6,0,0,0,.06.19c0-.06,0-.11,0-.17v-.13a9.3,9.3,0,0,1,0-1.18,7.74,7.74,0,0,1,1.68-4.56,5.54,5.54,0,0,1,7.16-1.21A9.31,9.31,0,0,1,85.93,6.4c0-.49,0-.9,0-1.3,0-.21.06-.29.27-.29q3.75,0,7.49,0c.22,0,.32.14.43.27.7.87,1.4,1.73,2.09,2.61.19.24.27.2.44,0,.68-.88,1.39-1.74,2.09-2.61a.56.56,0,0,1,.47-.26h5.58c.07,0,.14,0,.21.07l-2.31,2.83c-1,1.22-2,2.45-3,3.66a.33.33,0,0,0,0,.51c1.68,2,3.35,4.08,5,6.12l.29.36H99.23a.6.6,0,0,1-.55-.26c-.66-.84-1.35-1.66-2-2.51-.21-.27-.31-.24-.5,0-.67.85-1.36,1.69-2,2.54a.46.46,0,0,1-.44.21H86.24c-.26,0-.33-.08-.32-.33,0-.44,0-.89,0-1.47a5,5,0,0,1-4.64,2.11A5.82,5.82,0,0,1,77,16.08l-.07.08.67,2.21H77c-1.21,0-2.43,0-3.64,0a.42.42,0,0,1-.49-.38c-.52-2-1-4-1.57-6l-.12-.35c-.42,1.33-.81,2.58-1.2,3.84-.28.87-.56,1.75-.82,2.63-.06.19-.14.26-.34.25-1.13,0-2.26,0-3.39,0-.26,0-.32-.12-.38-.32-.67-2.18-1.35-4.34-2-6.51a1.08,1.08,0,0,0-.08-.19c-.13-.14-.06-.28,0-.43l1.74-5.57C64.67,5.21,64.67,4.94,65,5ZM83.61,8.47a3,3,0,0,0-3.23,3,3,3,0,0,0,2.52,3.23,2.93,2.93,0,0,0,3.27-3.07A3,3,0,0,0,83.61,8.47Zm9.81,3.42c.18-.19.16-.3,0-.48L90.3,8.1c-.06-.07-.1-.19-.25-.17v7.55C91.22,14.23,92.31,13.05,93.42,11.89Z"/></svg>