<svg id="Layer_1" data-name="Layer 1" xmlns="http://www.w3.org/2000/svg" viewBox="0 0 53.94 18.73"><defs><style>.cls-1{fill:#010101;}</style></defs><path class="cls-1" d="M0,0H2.75a2.62,2.62,0,0,1,0,.27V11.22a6.22,6.22,0,0,0,.31,2,4.33,4.33,0,0,0,4.31,3,4.44,4.44,0,0,0,4.3-3.58,6.51,6.51,0,0,0,.14-1.46V.05a22.55,22.55,0,0,1,2.74,0V18.4H11.84V16.72a1.09,1.09,0,0,1-.11.09,6.41,6.41,0,0,1-3.95,1.87,7.08,7.08,0,0,1-4.56-1,6.68,6.68,0,0,1-3-4.23A7.75,7.75,0,0,1,0,11.55V.24C0,.17,0,.1,0,0Z"/><path class="cls-1" d="M19.31,16.74v1.65H16.7V0h2.64V6.69l.23-.2A6.69,6.69,0,0,1,22.9,4.81a7,7,0,0,1,2.79,13.73A6.65,6.65,0,0,1,19.54,17,2.75,2.75,0,0,0,19.31,16.74Zm4.58-.36a4.66,4.66,0,1,0-4.6-4.67A4.66,4.66,0,0,0,23.89,16.38Z"/><path class="cls-1" d="M34.8,12.57a4.37,4.37,0,0,0,2.87,3.51,4.59,4.59,0,0,0,5.46-1.66L45,15.83c-.05.07-.09.14-.14.2a7,7,0,0,1-4.74,2.62,7.21,7.21,0,0,1-4.81-1,6.61,6.61,0,0,1-3.14-4.89,6.85,6.85,0,0,1,2.66-6.58,6.57,6.57,0,0,1,4.8-1.37,6.39,6.39,0,0,1,4.13,1.92,6.7,6.7,0,0,1,1.83,3.73,10.69,10.69,0,0,1,.08,2.15H34.8Zm.09-2.11H43a4.09,4.09,0,0,0-3.63-3.4A4.15,4.15,0,0,0,34.89,10.46Z"/><path class="cls-1" d="M53.94,4.89V7.36h-.26c-.39,0-.78,0-1.17,0a2.75,2.75,0,0,0-2.36,1.76,4.27,4.27,0,0,0-.3,1.73V18.4H47.24c-.05-.18-.08-12.72,0-13.36a22.13,22.13,0,0,1,2.61,0c0,.26,0,.52,0,.78a5.1,5.1,0,0,0,0,.77A.76.76,0,0,0,50,6.46a3.58,3.58,0,0,1,3-1.57Z"/></svg>