<svg width="132" height="84" viewBox="0 0 132 84" fill="none" xmlns="http://www.w3.org/2000/svg">
<path d="M104 42.4999C103.999 42.3683 104.024 42.2379 104.074 42.116C104.124 41.9942 104.197 41.8834 104.29 41.7899C104.383 41.6962 104.493 41.6218 104.615 41.571C104.737 41.5203 104.868 41.4941 105 41.4941C105.132 41.4941 105.263 41.5203 105.384 41.571C105.506 41.6218 105.617 41.6962 105.71 41.7899L109 45.0999L112.31 41.9199C112.497 41.7337 112.751 41.6291 113.015 41.6291C113.279 41.6291 113.532 41.7337 113.72 41.9199C113.814 42.0129 113.888 42.1235 113.939 42.2454C113.989 42.3672 114.016 42.4979 114.016 42.6299C114.016 42.762 113.989 42.8927 113.939 43.0145C113.888 43.1364 113.814 43.247 113.72 43.3399L109.72 47.1999C109.533 47.3832 109.282 47.4858 109.02 47.4858C108.758 47.4858 108.507 47.3832 108.32 47.1999L104.32 43.1999C104.223 43.1102 104.145 43.0021 104.09 42.882C104.035 42.7618 104.004 42.632 104 42.4999Z" fill="white"/>
<path d="M28.0156 50H29.4844L25.1562 38.6406H23.7578L19.4609 50H20.9219L21.9297 47.2344H27L28.0156 50ZM22.375 46.0156L24.4453 40.3359H24.4766L26.5547 46.0156H22.375ZM35.1562 42.125C34.1016 42.125 33.1406 42.5547 32.4922 43.3672H32.4609V38.2266H31.1641V50H32.4062V48.7734H32.4219C33.0547 49.6016 34.0078 50.1016 35.1562 50.1016C37.3047 50.1016 38.9766 48.5469 38.9766 46.1641C38.9766 43.8594 37.3672 42.125 35.1641 42.125H35.1562ZM35.0312 48.9219C33.6328 48.9219 32.4141 47.8203 32.4141 46.1719C32.4141 44.5703 33.5156 43.3125 35.0078 43.3125C36.4922 43.3125 37.6484 44.4375 37.6484 46.1719C37.6484 47.7422 36.6094 48.9219 35.0234 48.9219H35.0312ZM44.5078 50.1016C46.8047 50.1016 48.5156 48.4844 48.5156 46.125C48.5156 43.75 46.8047 42.125 44.5078 42.125C42.0938 42.125 40.4844 43.8672 40.4844 46.125C40.4844 48.3594 42.0938 50.1016 44.5078 50.1016ZM44.5078 48.9141C42.8984 48.9141 41.7891 47.6641 41.7891 46.125C41.7891 44.5703 42.8828 43.3203 44.5078 43.3203C46.0156 43.3203 47.2031 44.4609 47.2031 46.125C47.2031 47.7656 46.0078 48.9141 44.5078 48.9141ZM55.8516 42.2188V45.9922C55.8516 47.8438 54.7812 48.9141 53.5469 48.9141C52.3047 48.9141 51.6406 48.2578 51.6406 46.4844V42.2188H50.3516V46.8594C50.3516 49.0781 51.4844 50.1016 53.2734 50.1016C54.2812 50.1016 55.2109 49.6172 55.8281 48.7188H55.8516V50H57.1484V42.2188H55.8516ZM61.7422 50.1016C62.6641 50.1016 63.2031 49.8672 63.625 49.625L63.2812 48.4922C62.9141 48.7031 62.4297 48.8906 61.9688 48.8906C61.2344 48.8906 61.0156 48.4297 61.0156 47.4922V43.3438H63.5938V42.2188H61.0156V39.4141L59.7188 39.5547V42.2188H58.7266V43.3438H59.7188V47.6875C59.7188 49.2578 60.3594 50.1094 61.7422 50.1094V50.1016ZM74.2188 50.1016C76.9141 50.1016 78.6328 48.3047 78.6328 45.3828V38.6406H77.2422V45.2812C77.2422 47.4844 75.9922 48.7812 74.2188 48.7812C72.3828 48.7812 71.2188 47.3828 71.2188 45.2812V38.6406H69.8281V45.3828C69.8281 48.3828 71.6172 50.1016 74.2188 50.1016ZM83.5234 50.1016C85.3984 50.1016 86.3203 49.0938 86.3203 47.8672C86.3281 46.3516 85.2422 46.0703 83.6016 45.4375C82.7656 45.1172 82.125 44.8203 82.125 44.2109C82.125 43.6484 82.7266 43.2969 83.3203 43.2969C83.9844 43.2969 84.7031 43.5156 85.3906 44.1094L86.0625 43.0859C85.1953 42.375 84.3203 42.125 83.3828 42.125C81.8984 42.125 80.8047 43.0234 80.8047 44.2109C80.8047 45.6406 81.875 46.1641 83.1484 46.6094C84.2812 47.0078 85.0078 47.2188 85.0078 47.8906C85.0078 48.4609 84.4609 48.9297 83.5234 48.9297C82.4297 48.9297 81.75 48.5703 81.1484 48L80.4688 48.9844C81.2344 49.6641 82.2422 50.1094 83.5234 50.1094V50.1016Z" fill="white"/>
</svg>
