<svg width="132" height="84" viewBox="0 0 132 84" fill="none" xmlns="http://www.w3.org/2000/svg">
<path d="M108 42.4999C107.999 42.3683 108.024 42.2379 108.074 42.116C108.124 41.9942 108.197 41.8834 108.29 41.7899C108.383 41.6962 108.493 41.6218 108.615 41.571C108.737 41.5203 108.868 41.4941 109 41.4941C109.132 41.4941 109.263 41.5203 109.384 41.571C109.506 41.6218 109.617 41.6962 109.71 41.7899L113 45.0999L116.31 41.9199C116.497 41.7337 116.751 41.6291 117.015 41.6291C117.279 41.6291 117.532 41.7337 117.72 41.9199C117.814 42.0129 117.888 42.1235 117.939 42.2454C117.989 42.3672 118.016 42.4979 118.016 42.6299C118.016 42.762 117.989 42.8927 117.939 43.0145C117.888 43.1364 117.814 43.247 117.72 43.3399L113.72 47.1999C113.533 47.3832 113.282 47.4858 113.02 47.4858C112.758 47.4858 112.507 47.3832 112.32 47.1999L108.32 43.1999C108.223 43.1102 108.145 43.0021 108.09 42.882C108.035 42.7618 108.004 42.632 108 42.4999Z" fill="white"/>
<path d="M29.2578 44.0312V44C30.4922 43.5781 31.0703 42.5234 31.0703 41.4062C31.0703 39.4766 29.6328 38.6406 27.4062 38.6406H23.6953V50H27.8359C30.4141 50 31.6328 48.7344 31.6328 46.9219C31.6328 45.2578 30.5703 44.2969 29.2578 44.0234V44.0312ZM25.0859 39.9141H27.1172C28.9297 39.9141 29.6484 40.6094 29.6484 41.6797C29.6484 43.0391 28.4844 43.5156 27.3906 43.5156H25.0859V39.9141ZM27.4453 48.7188H25.0859V44.7656H27.5078C29.2422 44.7656 30.1719 45.5312 30.1719 46.7969C30.1719 48.0938 29.0703 48.7188 27.4453 48.7188ZM38.9844 42.2188V45.9922C38.9844 47.8438 37.9141 48.9141 36.6797 48.9141C35.4375 48.9141 34.7734 48.2578 34.7734 46.4844V42.2188H33.4844V46.8594C33.4844 49.0781 34.6172 50.1016 36.4062 50.1016C37.4141 50.1016 38.3438 49.6172 38.9609 48.7188H38.9844V50H40.2812V42.2188H38.9844ZM45.0469 50.1016C46.9219 50.1016 47.8438 49.0938 47.8438 47.8672C47.8516 46.3516 46.7656 46.0703 45.125 45.4375C44.2891 45.1172 43.6484 44.8203 43.6484 44.2109C43.6484 43.6484 44.25 43.2969 44.8438 43.2969C45.5078 43.2969 46.2266 43.5156 46.9141 44.1094L47.5859 43.0859C46.7188 42.375 45.8438 42.125 44.9062 42.125C43.4219 42.125 42.3281 43.0234 42.3281 44.2109C42.3281 45.6406 43.3984 46.1641 44.6719 46.6094C45.8047 47.0078 46.5312 47.2188 46.5312 47.8906C46.5312 48.4609 45.9844 48.9297 45.0469 48.9297C43.9531 48.9297 43.2734 48.5703 42.6719 48L41.9922 48.9844C42.7578 49.6641 43.7656 50.1094 45.0469 50.1094V50.1016ZM50.5078 40.7734C51.0156 40.7734 51.4297 40.3672 51.4297 39.8672C51.4297 39.3594 51.0156 38.9531 50.5078 38.9531C49.9844 38.9531 49.5859 39.3594 49.5859 39.8672C49.5859 40.3672 49.9844 40.7734 50.5078 40.7734ZM49.8516 50H51.1406V42.2188H49.8516V50ZM57.8828 42.125C56.7344 42.125 55.7109 42.6328 55.0625 43.5547H55.0391V42.2188H53.7422V50H55.0391V46.1172C55.0391 44.3672 56.0156 43.3125 57.4844 43.3125C58.625 43.3125 59.3906 43.9219 59.3906 45.75V50.0078H60.6875V45.3906C60.6875 43.1562 59.5703 42.125 57.8906 42.125H57.8828ZM69.8828 45.9922C69.8828 43.7578 68.4297 42.125 66.2578 42.125C64.1562 42.125 62.5312 43.7656 62.5312 46.1172C62.5312 48.4922 64.1953 50.1016 66.4062 50.1016C67.8281 50.1016 68.8906 49.5 69.5547 48.6406L68.6484 47.8672C68.1641 48.4688 67.4219 48.9141 66.4531 48.9141C65.0547 48.9141 64.0234 47.9688 63.8594 46.5234H69.8438C69.8516 46.4766 69.8828 46.1953 69.8828 45.9922ZM66.3281 43.3203C67.5625 43.3203 68.3906 44.1719 68.5938 45.4453H63.8906C64.1328 44.125 65.1094 43.3203 66.3281 43.3203ZM74.2188 50.1016C76.0938 50.1016 77.0156 49.0938 77.0156 47.8672C77.0234 46.3516 75.9375 46.0703 74.2969 45.4375C73.4609 45.1172 72.8203 44.8203 72.8203 44.2109C72.8203 43.6484 73.4219 43.2969 74.0156 43.2969C74.6797 43.2969 75.3984 43.5156 76.0859 44.1094L76.7578 43.0859C75.8906 42.375 75.0156 42.125 74.0781 42.125C72.5938 42.125 71.5 43.0234 71.5 44.2109C71.5 45.6406 72.5703 46.1641 73.8438 46.6094C74.9766 47.0078 75.7031 47.2188 75.7031 47.8906C75.7031 48.4609 75.1562 48.9297 74.2188 48.9297C73.125 48.9297 72.4453 48.5703 71.8438 48L71.1641 48.9844C71.9297 49.6641 72.9375 50.1094 74.2188 50.1094V50.1016ZM81.2812 50.1016C83.1562 50.1016 84.0781 49.0938 84.0781 47.8672C84.0859 46.3516 83 46.0703 81.3594 45.4375C80.5234 45.1172 79.8828 44.8203 79.8828 44.2109C79.8828 43.6484 80.4844 43.2969 81.0781 43.2969C81.7422 43.2969 82.4609 43.5156 83.1484 44.1094L83.8203 43.0859C82.9531 42.375 82.0781 42.125 81.1406 42.125C79.6562 42.125 78.5625 43.0234 78.5625 44.2109C78.5625 45.6406 79.6328 46.1641 80.9062 46.6094C82.0391 47.0078 82.7656 47.2188 82.7656 47.8906C82.7656 48.4609 82.2188 48.9297 81.2812 48.9297C80.1875 48.9297 79.5078 48.5703 78.9062 48L78.2266 48.9844C78.9922 49.6641 80 50.1094 81.2812 50.1094V50.1016Z" fill="white"/>
</svg>
