<svg width="28" height="30" viewBox="0 0 28 30" fill="none" xmlns="http://www.w3.org/2000/svg">
<g filter="url(#filter0_d_1644_45688)">
<path fill-rule="evenodd" clip-rule="evenodd" d="M13 2C17.9706 2 22 6.02944 22 11C22 13.1248 21.2637 15.0776 20.0323 16.6172L23.7071 20.2929C24.0976 20.6834 24.0976 21.3166 23.7071 21.7071C23.3466 22.0676 22.7794 22.0953 22.3871 21.7903L22.2929 21.7071L18.6172 18.0323C17.0776 19.2637 15.1248 20 13 20C8.02944 20 4 15.9706 4 11C4 6.02944 8.02944 2 13 2ZM13 4C9.13401 4 6 7.13401 6 11C6 14.866 9.13401 18 13 18C16.866 18 20 14.866 20 11C20 7.13401 16.866 4 13 4Z" fill="#F9FBFC"/>
</g>
<defs>
<filter id="filter0_d_1644_45688" x="-2" y="0" width="32" height="32" filterUnits="userSpaceOnUse" color-interpolation-filters="sRGB">
<feFlood flood-opacity="0" result="BackgroundImageFix"/>
<feColorMatrix in="SourceAlpha" type="matrix" values="0 0 0 0 0 0 0 0 0 0 0 0 0 0 0 0 0 0 127 0" result="hardAlpha"/>
<feOffset dy="4"/>
<feGaussianBlur stdDeviation="2"/>
<feComposite in2="hardAlpha" operator="out"/>
<feColorMatrix type="matrix" values="0 0 0 0 0 0 0 0 0 0 0 0 0 0 0 0 0 0 0.25 0"/>
<feBlend mode="normal" in2="BackgroundImageFix" result="effect1_dropShadow_1644_45688"/>
<feBlend mode="normal" in="SourceGraphic" in2="effect1_dropShadow_1644_45688" result="shape"/>
</filter>
</defs>
</svg>
