<svg width="94" height="34" viewBox="0 0 94 34" fill="none" xmlns="http://www.w3.org/2000/svg">
<path fill-rule="evenodd" clip-rule="evenodd" d="M32.5365 17.2913C32.5365 26.4201 25.2512 33.8237 16.2683 33.8237C7.28531 33.8237 0 26.43 0 17.2913C0 8.15257 7.28531 0.758804 16.2683 0.758804C25.2609 0.758804 32.5365 8.16243 32.5365 17.2913Z" fill="#EE312A"/>
<path fill-rule="evenodd" clip-rule="evenodd" d="M16.2682 24.3792C12.6304 15.9996 9.96272 8.16216 9.96272 8.16216H4.38477C4.38477 8.16216 7.78004 18.2177 14.0856 30.7871H18.4509C24.7564 18.2177 28.1517 8.16216 28.1517 8.16216H22.5738C22.5738 8.16216 19.906 15.9897 16.2682 24.3792Z" fill="white"/>
<path fill-rule="evenodd" clip-rule="evenodd" d="M86.3374 16.4334C83.1846 16.4334 82.9421 19.8838 82.9421 19.8838H89.7327C89.7327 19.8838 89.4901 16.4334 86.3374 16.4334ZM93.8652 23.3342H82.9421C82.9421 23.3342 83.1846 27.0311 88.035 27.0311C90.4602 27.0311 92.8854 26.2917 92.8854 26.2917L93.3705 30.2351C93.3705 30.2351 90.9453 31.2209 87.55 31.2209C82.6996 31.2209 78.3342 28.7563 78.3342 21.8555C78.3342 16.4334 81.7295 12.9829 86.5799 12.9829C93.8652 12.9829 94.3503 20.3767 93.8652 23.3342ZM56.7402 17.5079L57.4872 13.4364C57.4872 13.4364 51.6861 11.6521 46.9715 14.9645V31.2505H51.9771V18.0206C53.9852 16.4925 56.7402 17.5079 56.7402 17.5079ZM35.8738 16.4334C32.721 16.4334 32.4785 19.8838 32.4785 19.8838H39.2691C39.2691 19.8838 39.0265 16.4334 35.8738 16.4334ZM43.3919 23.3342H32.4785C32.4785 23.3342 32.721 27.0311 37.5714 27.0311C39.9966 27.0311 42.4218 26.2917 42.4218 26.2917L42.9069 30.2351C42.9069 30.2351 40.4817 31.2209 37.0864 31.2209C32.236 31.2209 27.8706 28.7563 27.8706 21.8555C27.8706 16.4334 31.2659 12.9829 36.1163 12.9829C43.3919 12.9829 43.8769 20.3767 43.3919 23.3342ZM68.9632 25.02C66.4216 18.8191 65.1508 12.9829 65.1508 12.9829H60.0676C60.0676 12.9829 62.6092 22.9596 66.9358 31.2209H71.0004C75.3173 22.9596 77.8686 12.9829 77.8686 12.9829H72.7854C72.7757 12.9829 71.5048 18.8191 68.9632 25.02Z" fill="white"/>
</svg>
