<svg width="80" height="29" viewBox="0 0 80 29" fill="none" xmlns="http://www.w3.org/2000/svg">
<path fill-rule="evenodd" clip-rule="evenodd" d="M27.6907 14.0702C27.6907 21.8394 21.4904 28.1404 13.8453 28.1404C6.20027 28.1404 0 21.8478 0 14.0702C0 6.29257 6.20027 0 13.8453 0C21.4987 0 27.6907 6.30096 27.6907 14.0702Z" fill="#EE312A"/>
<path fill-rule="evenodd" clip-rule="evenodd" d="M13.8455 20.1023C10.7495 12.9708 8.47913 6.30062 8.47913 6.30062H3.73193C3.73193 6.30062 6.62153 14.8585 11.9879 25.5559H15.7031C21.0695 14.8585 23.9591 6.30062 23.9591 6.30062H19.2119C19.2119 6.30062 16.9415 12.9624 13.8455 20.1023Z" fill="white"/>
<path fill-rule="evenodd" clip-rule="evenodd" d="M73.4787 13.3399C70.7955 13.3399 70.5891 16.2764 70.5891 16.2764H76.3683C76.3683 16.2764 76.1619 13.3399 73.4787 13.3399ZM79.8854 19.2129H70.5891C70.5891 19.2129 70.7955 22.3592 74.9235 22.3592C76.9875 22.3592 79.0515 21.73 79.0515 21.73L79.4643 25.086C79.4643 25.086 77.4003 25.925 74.5107 25.925C70.3827 25.925 66.6675 23.8275 66.6675 17.9544C66.6675 13.3399 69.5571 10.4033 73.6851 10.4033C79.8854 10.4033 80.2982 16.6959 79.8854 19.2129ZM48.2896 14.2544L48.9253 10.7893C48.9253 10.7893 43.9882 9.27067 39.9758 12.0897V25.9502H44.2359V14.6907C45.9449 13.3902 48.2896 14.2544 48.2896 14.2544ZM30.5309 13.3399C27.8477 13.3399 27.6413 16.2764 27.6413 16.2764H33.4205C33.4205 16.2764 33.2141 13.3399 30.5309 13.3399ZM36.9293 19.2129H27.6413C27.6413 19.2129 27.8477 22.3592 31.9757 22.3592C34.0397 22.3592 36.1037 21.73 36.1037 21.73L36.5165 25.086C36.5165 25.086 34.4525 25.925 31.5629 25.925C27.4349 25.925 23.7197 23.8275 23.7197 17.9544C23.7197 13.3399 26.6093 10.4033 30.7373 10.4033C36.9293 10.4033 37.3421 16.6959 36.9293 19.2129ZM58.6922 20.6476C56.5291 15.3703 55.4476 10.4033 55.4476 10.4033H51.1214C51.1214 10.4033 53.2845 18.8941 56.9667 25.925H60.426C64.0999 18.8941 66.2712 10.4033 66.2712 10.4033H61.9451C61.9368 10.4033 60.8553 15.3703 58.6922 20.6476Z" fill="#00425F"/>
</svg>
